<?xml version="1.0" encoding="UTF-8" standalone="no"?>
<!DOCTYPE svg PUBLIC "-//W3C//DTD SVG 1.1//EN" "http://www.w3.org/Graphics/SVG/1.1/DTD/svg11.dtd">
<svg width="100%" height="100%" viewBox="0 0 1200 630" version="1.1" xmlns="http://www.w3.org/2000/svg" xmlns:xlink="http://www.w3.org/1999/xlink" xml:space="preserve" xmlns:serif="http://www.serif.com/" style="fill-rule:evenodd;clip-rule:evenodd;stroke-linejoin:round;stroke-miterlimit:2;">
    <rect x="0" y="0" width="1200" height="630" style="fill:rgb(249,247,245);"/>
    <g transform="matrix(13.7206,0,0,13.7206,38.9374,150.353)">
        <path d="M21,16.5C21,16.88 20.79,17.21 20.47,17.38L12.57,21.82C12.41,21.94 12.21,22 12,22C11.79,22 11.59,21.94 11.43,21.82L3.53,17.38C3.21,17.21 3,16.88 3,16.5L3,7.5C3,7.12 3.21,6.79 3.53,6.62L11.43,2.18C11.59,2.06 11.79,2 12,2C12.21,2 12.41,2.06 12.57,2.18L20.47,6.62C20.79,6.79 21,7.12 21,7.5L21,16.5Z" style="fill:rgb(241,100,54);fill-rule:nonzero;"/>
    </g>
    <g transform="matrix(1,0,0,1,371.095,294.816)">
        <text x="0px" y="0px" style="font-family:'Arial-BoldMT', 'Arial';font-weight:700;font-size:72px;fill:rgb(20,20,20);">CurseForge Embed</text>
    </g>
    <g transform="matrix(1,0,0,1,372.291,351.18)">
        <text x="0px" y="0px" style="font-family:'Arial-BoldMT', 'Arial';font-weight:700;font-size:36px;fill:rgb(109,112,114);">Modern CurseForge embeds for Minecraft</text>
        <text x="0px" y="36px" style="font-family:'Arial-BoldMT', 'Arial';font-weight:700;font-size:36px;fill:rgb(109,112,114);">mods</text>
    </g>
</svg>
